HIERARCHY
ROOT Hips
{
    OFFSET 0.000000 0.000000 0.000000
    CHANNELS 6 Xposition Yposition Zposition Zrotation Yrotation Xrotation
    JOINT LeftUpLeg
    {
        OFFSET 9.162498 -10.205075 3.799697
        CHANNELS 3 Zrotation Yrotation Xrotation
        JOINT LeftLeg
        {
            OFFSET 14.513953 -39.876781 0.000000
            CHANNELS 3 Zrotation Yrotation Xrotation
            JOINT LeftFoot
            {
                OFFSET 14.224848 -39.082561 0.000000
                CHANNELS 3 Zrotation Yrotation Xrotation
                JOINT LeftToeBase
                {
                    OFFSET 1.314863 -3.612473 11.865319
                    CHANNELS 3 Zrotation Yrotation Xrotation
                    End Site
                    {
                        OFFSET 0.000000 0.000000 0.000000
                    }
                }
            }
        }
    }
    JOINT RightUpLeg
    {
        OFFSET -8.357156 -10.205075 3.799697
        CHANNELS 3 Zrotation Yrotation Xrotation
        JOINT RightLeg
        {
            OFFSET -14.859335 -40.825722 0.000000
            CHANNELS 3 Zrotation Yrotation Xrotation
            JOINT RightFoot
            {
                OFFSET -14.380747 -39.510799 0.000000
                CHANNELS 3 Zrotation Yrotation Xrotation
                JOINT RightToeBase
                {
                    OFFSET -1.301994 -3.577195 11.975215
                    CHANNELS 3 Zrotation Yrotation Xrotation
                    End Site
                    {
                        OFFSET 0.000000 0.000000 0.000000
                    }
                }
            }
        }
    }
    JOINT Spine
    {
        OFFSET -0.118984 11.716251 -0.958476
        CHANNELS 3 Zrotation Yrotation Xrotation
        JOINT Spine1
        {
            OFFSET 0.286171 11.765131 -0.177291
            CHANNELS 3 Zrotation Yrotation Xrotation
            JOINT Neck1
            {
                OFFSET -0.605701 9.054070 1.770648
                CHANNELS 3 Zrotation Yrotation Xrotation
                JOINT Head
                {
                    OFFSET 0.474750 9.351585 -1.739717
                    CHANNELS 3 Zrotation Yrotation Xrotation
                    End Site
                    {
                        OFFSET 0.000000 0.000000 0.000000
                    }
                }
            }
            JOINT LeftShoulder
            {
                OFFSET 0.000000 0.000000 0.000000
                CHANNELS 3 Zrotation Yrotation Xrotation
                JOINT LeftArm
                {
                    OFFSET 19.886068 4.132773 -3.087148
                    CHANNELS 3 Zrotation Yrotation Xrotation
                    JOINT LeftForeArm
                    {
                        OFFSET 30.054285 -0.000000 -0.000000
                        CHANNELS 3 Zrotation Yrotation Xrotation
                        JOINT LeftHand
                        {
                            OFFSET 19.665203 -0.000000 -0.000000
                            CHANNELS 3 Zrotation Yrotation Xrotation
                            End Site
                            {
                                OFFSET 0.000000 0.000000 0.000000
                            }
                        }
                    }
                }
            }
            JOINT RightShoulder
            {
                OFFSET 0.000000 0.000000 0.000000
                CHANNELS 3 Zrotation Yrotation Xrotation
                JOINT RightArm
                {
                    OFFSET -19.290640 5.282707 -0.565512
                    CHANNELS 3 Zrotation Yrotation Xrotation
                    JOINT RightForeArm
                    {
                        OFFSET -30.117897 -0.000000 -0.000000
                        CHANNELS 3 Zrotation Yrotation Xrotation
                        JOINT RightHand
                        {
                            OFFSET -20.553181 -0.000000 -0.000000
                            CHANNELS 3 Zrotation Yrotation Xrotation
                            End Site
                            {
                                OFFSET 0.000000 0.000000 0.000000
                            }
                        }
                    }
                }
            }
        }
    }
}
MOTION
Frames: 15
Frame Time: 0.016667
-4.426339 95.429871 7.718717 5.339202 0.363700 7.739703 -12.013800 -7.607399 -4.778898 0.649400 5.155003 14.351208 -0.142700 7.258904 -5.674800 2.850403 -10.448905 -30.443022 13.555900 3.887502 -19.851110 -3.437699 -11.372000 33.544998 -1.293100 1.317001 -21.108913 -0.098000 -2.019101 5.558302 9.223752 3.677480 10.773543 4.029500 1.408100 -3.360099 2.214187 -13.677852 -22.746786 3.689301 -4.242804 7.876003 0.000000 0.000000 0.000000 -77.185028 11.240204 15.220607 33.806095 -43.940491 -13.978295 0.000000 0.000000 8.022900 0.000000 0.000000 0.000000 37.123817 19.896513 9.907105 -25.282200 36.491016 -8.457201 0.000000 0.000000 42.481800 
-4.215238 95.371735 7.654371 5.107402 0.971600 7.692400 -11.805102 -7.586104 -4.508600 0.593300 4.931302 13.712596 -0.120500 6.767104 -5.498500 2.694602 -10.183501 -29.573011 13.742607 3.560401 -19.824310 -3.443001 -11.379806 33.571815 -1.315800 1.152600 -21.343515 -0.100900 -2.048301 5.639100 9.290690 3.319172 10.812007 4.339700 1.323200 -3.461799 1.659868 -13.150777 -22.583763 3.560503 -4.052603 7.817705 0.000000 0.000000 0.000000 -77.541901 11.720198 15.235301 34.262512 -44.278305 -14.295993 0.000000 0.000000 7.925100 0.000000 0.000000 0.000000 35.794224 19.901304 7.715604 -25.659910 36.870914 -8.682807 0.000000 0.000000 40.533802 
-3.973658 95.393181 7.650984 4.946104 1.602201 7.651204 -11.686506 -7.832804 -4.416900 0.567000 4.822603 13.403208 -0.118200 6.783898 -5.675704 2.252400 -9.373200 -26.969814 13.856804 3.153701 -19.669203 -3.412202 -11.334206 33.415424 -1.335601 0.914600 -21.576200 -0.087900 -1.911801 5.262101 9.316847 3.061821 10.727110 4.262198 1.242400 -3.326600 1.499606 -12.414154 -22.506945 3.659401 -3.843403 7.865607 0.000000 0.000000 0.000000 -77.421700 11.445698 15.372292 33.972816 -44.064617 -14.094098 0.000000 0.000000 7.832503 0.000000 0.000000 0.000000 34.185802 19.953508 5.141103 -26.252108 37.456612 -9.040503 0.000000 0.000000 37.769001 
-3.750139 95.408424 7.625584 4.961300 1.810800 7.901906 -11.852404 -8.005902 -4.503402 0.541600 4.715300 13.098204 -0.112800 6.839607 -6.103804 2.154002 -9.179604 -26.358900 13.666496 3.151300 -19.872494 -3.398201 -11.313400 33.344101 -1.333001 0.797501 -21.589113 -0.081300 -1.839401 5.062004 8.886194 3.201413 10.280055 4.320400 1.257700 -3.185202 1.372563 -11.763947 -22.311266 3.709902 -3.652900 7.787896 0.000000 0.000000 0.000000 -77.366539 11.562108 15.540205 34.089207 -44.150707 -14.175112 0.000000 0.000000 7.808401 0.000000 0.000000 0.000000 32.269012 20.311504 2.119802 -26.624012 37.818218 -9.267605 0.000000 0.000000 35.786499 
-3.520977 95.317551 7.556159 4.571002 2.389901 7.796704 -11.532804 -7.795800 -4.480799 0.517600 4.610902 12.802104 -0.083600 6.241600 -6.079900 2.280702 -9.427807 -27.142809 14.018603 2.786700 -19.797806 -3.390401 -11.301603 33.304005 -1.361601 0.807800 -21.820610 -0.112800 -2.165201 5.962302 8.979369 3.062424 10.281951 4.251702 1.223000 -3.277502 1.347031 -11.253990 -22.149267 3.562200 -3.494099 7.712100 0.000000 0.000000 0.000000 -77.265396 11.737000 15.704098 34.263504 -44.278992 -14.296699 0.000000 0.000000 7.808300 0.000000 0.000000 0.000000 29.994413 20.781115 -0.958997 -27.020605 38.198822 -9.511806 0.000000 0.000000 33.345406 
-3.288428 95.302307 7.604701 4.347501 3.586802 7.238907 -11.373404 -8.295200 -3.782400 0.504200 4.551803 12.634504 -0.050800 5.738202 -6.476002 2.134001 -9.139700 -26.233416 14.311500 1.836701 -19.035513 -3.348200 -11.238404 33.088100 -1.401700 0.514600 -22.234516 -0.090800 -1.943201 5.348700 9.017274 2.512813 10.508874 4.100600 1.064301 -3.112701 1.392368 -10.739209 -22.105873 3.663699 -3.354500 7.640100 0.000000 0.000000 0.000000 -77.172821 11.379800 15.712101 34.176498 -44.215099 -14.235999 0.000000 0.000000 8.137900 0.000000 0.000000 0.000000 27.402699 21.096512 -4.553299 -27.453503 38.608204 -9.780803 0.000000 0.000000 31.352604 
-3.070554 95.302307 7.597927 3.837700 4.350602 7.020900 -10.886007 -8.920497 -3.416699 0.494100 4.506703 12.506807 -0.030700 5.714602 -7.183499 1.738801 -8.299502 -23.627407 14.836896 1.554500 -18.605604 -3.293100 -11.155000 32.804501 -1.422800 -0.017300 -22.575500 -0.069100 -1.696000 4.666200 9.201503 2.442774 10.454986 3.819304 1.048301 -3.325200 1.666375 -10.576136 -21.716646 3.632100 -3.322401 7.730308 0.000000 0.000000 0.000000 -76.886398 11.647805 16.012806 34.264114 -44.279411 -14.297104 0.000000 0.000000 7.876101 0.000000 0.000000 0.000000 24.733109 21.401712 -8.067204 -27.812605 38.943108 -10.005606 0.000000 0.000000 29.031797 
-2.825587 95.227234 7.574785 3.573200 5.183100 6.809500 -10.776111 -8.984303 -3.160400 0.476000 4.424798 12.274904 -0.008800 5.385303 -7.405500 1.899099 -8.652600 -24.714603 15.053498 1.031899 -18.423710 -3.295900 -11.159302 32.819004 -1.447600 -0.225900 -22.843798 -0.060000 -1.580000 4.346200 9.134054 2.251373 10.295637 3.473799 0.979200 -3.320601 1.898307 -10.371546 -21.439722 3.706200 -3.276201 7.602905 0.000000 0.000000 0.000000 -76.608841 11.659503 16.138708 34.360706 -44.350220 -14.364609 0.000000 0.000000 7.386707 0.000000 0.000000 0.000000 21.951799 21.821901 -11.647705 -28.276611 39.369633 -10.298604 0.000000 0.000000 26.807108 
-2.581748 95.118866 7.564625 3.504400 5.915500 6.670398 -10.940307 -8.755308 -3.182302 0.459100 4.346300 12.053103 -0.001800 5.038200 -7.130600 2.120101 -9.111805 -26.145716 15.015200 0.526999 -18.338301 -3.328500 -11.208700 32.987095 -1.487301 -0.125200 -23.120899 -0.066100 -1.659199 4.564697 8.700491 2.168376 10.104383 3.309201 0.937601 -3.370602 2.116436 -10.174012 -21.233904 3.740899 -3.229100 7.501203 0.000000 0.000000 0.000000 -76.502846 11.717707 16.112410 34.573700 -44.505318 -14.513700 0.000000 0.000000 7.392800 0.000000 0.000000 0.000000 18.886803 22.423899 -15.500906 -28.452799 39.529713 -10.410599 0.000000 0.000000 24.654800 
-2.357666 95.059029 7.595105 3.120801 6.586002 6.420603 -10.729303 -8.792402 -3.046303 0.462800 4.363902 12.102600 0.021700 4.818000 -7.578596 2.190301 -9.251698 -26.585711 15.376309 0.301401 -17.969206 -3.321699 -11.198503 32.952301 -1.516900 -0.547600 -23.497999 -0.051100 -1.459200 4.013202 8.596943 2.132667 9.809886 3.204601 0.918200 -3.442001 2.245888 -10.070602 -20.695904 3.842898 -3.205800 7.352800 0.000000 0.000000 0.000000 -76.576241 12.430906 16.209505 35.247601 -44.988098 -14.988097 0.000000 0.000000 7.808100 0.000000 0.000000 0.000000 15.459802 23.266903 -19.265810 -28.299309 39.390297 -10.313003 0.000000 0.000000 22.607805 
-2.112699 95.029678 7.586638 2.782701 7.357900 6.158500 -10.558607 -8.789302 -3.151602 0.487800 4.478302 12.426404 0.053400 4.421098 -8.014904 2.199001 -9.268700 -26.639713 15.676306 -0.278600 -17.677107 -3.295903 -11.159306 32.818928 -1.520901 -0.852300 -23.639807 -0.026600 -1.052900 2.894401 8.516673 2.127904 9.776927 2.936101 0.907100 -3.462700 2.635438 -10.131886 -20.738411 3.857900 -3.242800 7.356704 0.000000 0.000000 0.000000 -76.318222 12.409206 16.730606 35.646496 -45.268303 -15.270794 0.000000 0.000000 6.464803 0.000000 0.000000 0.000000 11.914104 24.138506 -23.963608 -28.144009 39.248524 -10.214706 0.000000 0.000000 22.111908 
-1.866039 94.968155 7.591718 2.351001 7.856600 5.981898 -10.303800 -9.087599 -3.301003 0.525900 4.647500 12.905998 0.068700 4.478702 -8.486700 2.160101 -9.191904 -26.397503 16.035809 -0.567799 -17.415308 -3.247003 -11.084504 32.565308 -1.510101 -1.125900 -23.660706 -0.029600 -1.111200 3.054700 8.475838 2.180149 9.652646 2.567300 0.903600 -3.301201 3.098732 -10.059001 -20.968336 3.842600 -3.245701 7.388900 0.000000 0.000000 0.000000 -76.098236 12.087005 16.970602 35.453815 -45.133511 -15.134101 0.000000 0.000000 5.788600 0.000000 0.000000 0.000000 8.371404 25.335699 -28.313099 -27.877008 39.002815 -10.046206 0.000000 0.000000 20.148899 
-1.633489 94.965904 7.592283 1.878700 8.377400 5.662003 -10.006405 -9.186304 -3.208801 0.550400 4.752700 13.204597 0.093100 4.361600 -8.969700 2.067101 -9.004400 -25.809212 16.460497 -0.836599 -16.939117 -3.193302 -11.001607 32.285324 -1.534300 -1.306400 -23.916109 -0.023900 -0.998700 2.745302 8.545603 2.372850 9.805413 2.124801 0.949200 -3.225201 3.594892 -10.194978 -21.355211 3.854403 -3.315402 7.517107 0.000000 0.000000 0.000000 -75.905022 11.708301 16.728592 35.576996 -45.219814 -15.221505 0.000000 0.000000 6.809102 0.000000 0.000000 0.000000 4.446104 26.588610 -33.107513 -27.301699 38.465405 -9.686206 0.000000 0.000000 18.539801 
-1.376105 94.949532 7.598491 1.781600 8.955405 5.596902 -10.109104 -9.102508 -3.435801 0.574000 4.851902 13.486505 0.121600 4.000300 -9.279804 2.123900 -9.119504 -26.169991 16.433002 -1.283401 -16.757107 -3.152101 -10.937299 32.068726 -1.542200 -1.404501 -24.014795 -0.018300 -0.872500 2.397900 8.111362 2.430768 9.514730 1.892801 0.943300 -3.267002 3.927594 -10.524703 -21.196594 3.589303 -3.413301 7.720907 0.000000 0.000000 0.000000 -76.000702 11.696900 16.162096 35.454090 -45.133694 -15.134291 0.000000 0.000000 7.610099 0.000000 0.000000 0.000000 0.972500 27.531105 -37.034813 -27.341908 38.503201 -9.711205 0.000000 0.000000 16.430901 
-1.148071 94.943886 7.534145 1.381301 9.505409 5.392904 -9.818007 -9.151210 -3.672205 0.607600 4.989202 13.877700 0.146100 3.663603 -9.520004 2.102400 -9.076100 -26.033707 16.761494 -1.648002 -16.532700 -3.126001 -10.896300 31.930899 -1.542199 -1.550200 -24.073393 -0.011000 -0.678201 1.863802 8.064853 2.761602 9.563989 1.795102 1.038601 -3.517902 3.982157 -11.181932 -21.051983 3.303699 -3.591301 8.063904 0.000000 0.000000 0.000000 -76.185524 11.500602 16.338293 35.232700 -44.977600 -14.977601 0.000000 0.000000 7.635807 0.000000 0.000000 0.000000 -2.802799 28.211399 -40.664707 -27.231194 38.398773 -9.642398 0.000000 0.000000 14.644708 
